<svg xmlns="http://www.w3.org/2000/svg" viewBox="0 0 100 100" width="100" height="100">
  <defs>
    <linearGradient id="sheen-unzipfiles" x1="0" y1="0" x2="0" y2="1">
      <stop offset="0" stop-color="#FFFFFF" stop-opacity="0.16"/>
      <stop offset="1" stop-color="#FFFFFF" stop-opacity="0"/>
    </linearGradient>
  </defs>
  <rect width="100" height="100" rx="28" fill="#C7852A"/>
  <rect width="100" height="100" rx="28" fill="url(#sheen-unzipfiles)"/>
  <path d="M20 42 h22 l6 8 h32 a4 4 0 0 1 4 4 v26 a4 4 0 0 1 -4 4 h-56 a4 4 0 0 1 -4 -4 v-34 a4 4 0 0 1 4 -4 z" fill="#FFFFFF"/>
  <path d="M50 22 v24 M50 22 l-9 9 M50 22 l9 9" fill="none" stroke="#FFFFFF" stroke-width="6" stroke-linecap="round" stroke-linejoin="round"/>
</svg>
